<mxfile host="Electron" scale="1.2" border="0" version="23.1.5" type="device">
  <diagram name="Page-1" id="ahwWs56YI2XBYRBzwlqw">
    <mxGraphModel dx="634" dy="1244" grid="1" gridSize="10" guides="1" tooltips="1" connect="1" arrows="1" fold="1" page="0" pageScale="1" pageWidth="850" pageHeight="1100" math="0" shadow="0">
      <root>
        <mxCell id="0" />
        <mxCell id="1" parent="0" />
        <mxCell id="57" value="&lt;b&gt;$NOTES&lt;/b&gt;&lt;br&gt;The below events and handlers are just a sample to show what the syntax can&amp;nbsp;look like. You should replace them with your own.&lt;br&gt;&lt;br&gt;We don&#39;t yet generate fully working examples for every supported language. This starting template is language agnostic." style="shape=rectangle;rounded=1;arcSize=15;absoluteArcSize=1;align=left;verticalAlign=top;whiteSpace=wrap;html=1;spacingLeft=4;strokeWidth=1;strokeColor=default;fillColor=#fff2cc;fontColor=#000000;gradientColor=#ffd966;" parent="1" vertex="1">
          <mxGeometry x="840" y="-40" width="360" height="110" as="geometry" />
        </mxCell>
        <mxCell id="ZIOTUwtG6jgaDJF-H-SD-57" value="$STATEMACHINE : {{smName}}" style="shape=swimlane;rotatable=0;align=center;verticalAlign=top;fontFamily=Lucida Console;startSize=30;fontSize=14;fontStyle=1;fontColor=#ffffff;fillColor=#1ba1e2;swimlaneFillColor=default;rounded=1;arcSize=15;absoluteArcSize=1;strokeColor=#006EAF;" parent="1" vertex="1">
          <mxGeometry x="840" y="80" width="360" height="470" as="geometry" />
        </mxCell>
        <mxCell id="ZIOTUwtG6jgaDJF-H-SD-58" value=" " style="fontFamily=Lucida Console;align=left;verticalAlign=top;fillColor=none;gradientColor=none;strokeColor=none;rounded=0;spacingLeft=4;resizable=0;movable=0;deletable=0;rotatable=0;autosize=1;" parent="ZIOTUwtG6jgaDJF-H-SD-57" vertex="1" connectable="0">
          <mxGeometry y="30" width="30" height="20" as="geometry" />
        </mxCell>
        <mxCell id="ZIOTUwtG6jgaDJF-H-SD-59" value="$initial_state" style="shape=ellipse;aspect=fixed;fillColor=#000000;resizable=0;rotatable=0;noLabel=1;" parent="ZIOTUwtG6jgaDJF-H-SD-57" vertex="1">
          <mxGeometry x="157.5" y="60" width="25" height="25" as="geometry" />
        </mxCell>
        <mxCell id="ZIOTUwtG6jgaDJF-H-SD-66" value="MY_EVENT_1" style="edgeStyle=orthogonalEdgeStyle;rounded=0;orthogonalLoop=1;jettySize=auto;html=1;exitX=0.25;exitY=1;exitDx=0;exitDy=0;entryX=0.25;entryY=0;entryDx=0;entryDy=0;" parent="ZIOTUwtG6jgaDJF-H-SD-57" source="ZIOTUwtG6jgaDJF-H-SD-60" target="ZIOTUwtG6jgaDJF-H-SD-62" edge="1">
          <mxGeometry relative="1" as="geometry" />
        </mxCell>
        <mxCell id="ZIOTUwtG6jgaDJF-H-SD-60" value="STATE_1" style="shape=swimlane;rotatable=0;align=center;verticalAlign=top;fontFamily=Lucida Console;startSize=30;fontSize=14;fontStyle=1;fontColor=#FAFAFA;fillColor=#545454;swimlaneFillColor=default;rounded=1;arcSize=15;absoluteArcSize=1;" parent="ZIOTUwtG6jgaDJF-H-SD-57" vertex="1">
          <mxGeometry x="60" y="120" width="220" height="90" as="geometry" />
        </mxCell>
        <mxCell id="ZIOTUwtG6jgaDJF-H-SD-61" value="enter / print(&quot;S1 enter&quot;);&#xa;do    / print(&quot;S1 do&quot;);&#xa;exit  / print(&quot;S1 exit&quot;);" style="fontFamily=Lucida Console;align=left;verticalAlign=top;fillColor=none;gradientColor=none;strokeColor=none;rounded=0;spacingLeft=4;resizable=0;movable=0;deletable=0;rotatable=0;autosize=1;" parent="ZIOTUwtG6jgaDJF-H-SD-60" vertex="1" connectable="0">
          <mxGeometry y="30" width="210" height="60" as="geometry" />
        </mxCell>
        <mxCell id="ZIOTUwtG6jgaDJF-H-SD-67" value="MY_EVENT_2" style="edgeStyle=orthogonalEdgeStyle;rounded=0;orthogonalLoop=1;jettySize=auto;html=1;exitX=0.75;exitY=0;exitDx=0;exitDy=0;entryX=0.75;entryY=1;entryDx=0;entryDy=0;" parent="ZIOTUwtG6jgaDJF-H-SD-57" source="ZIOTUwtG6jgaDJF-H-SD-62" target="ZIOTUwtG6jgaDJF-H-SD-60" edge="1">
          <mxGeometry relative="1" as="geometry" />
        </mxCell>
        <mxCell id="ZIOTUwtG6jgaDJF-H-SD-62" value="STATE_2" style="shape=swimlane;rotatable=0;align=center;verticalAlign=top;fontFamily=Lucida Console;startSize=30;fontSize=14;fontStyle=1;fontColor=#FAFAFA;fillColor=#545454;swimlaneFillColor=default;rounded=1;arcSize=15;absoluteArcSize=1;" parent="ZIOTUwtG6jgaDJF-H-SD-57" vertex="1">
          <mxGeometry x="60" y="270" width="220" height="130" as="geometry" />
        </mxCell>
        <mxCell id="ZIOTUwtG6jgaDJF-H-SD-63" value="enter / {&#xa;  print(&quot;S2 enter&quot;);&#xa;}&#xa;exit / {&#xa;  print(&quot;S1 exit&quot;);&#xa;}" style="fontFamily=Lucida Console;align=left;verticalAlign=top;fillColor=none;gradientColor=none;strokeColor=none;rounded=0;spacingLeft=4;resizable=0;movable=0;deletable=0;rotatable=0;autosize=1;" parent="ZIOTUwtG6jgaDJF-H-SD-62" vertex="1" connectable="0">
          <mxGeometry y="30" width="170" height="100" as="geometry" />
        </mxCell>
        <mxCell id="ZIOTUwtG6jgaDJF-H-SD-64" style="rounded=0;" parent="ZIOTUwtG6jgaDJF-H-SD-57" source="ZIOTUwtG6jgaDJF-H-SD-59" target="ZIOTUwtG6jgaDJF-H-SD-60" edge="1">
          <mxGeometry relative="1" as="geometry" />
        </mxCell>
      </root>
    </mxGraphModel>
  </diagram>
</mxfile>
